%TF.GenerationSoftware,KiCad,Pcbnew,7.0.7*%
%TF.CreationDate,2025-03-27T10:25:25-07:00*%
%TF.ProjectId,lab7,6c616237-2e6b-4696-9361-645f70636258,rev?*%
%TF.SameCoordinates,Original*%
%TF.FileFunction,Soldermask,Bot*%
%TF.FilePolarity,Negative*%
%FSLAX46Y46*%
G04 Gerber Fmt 4.6, Leading zero omitted, Abs format (unit mm)*
G04 Created by KiCad (PCBNEW 7.0.7) date 2025-03-27 10:25:25*
%MOMM*%
%LPD*%
G01*
G04 APERTURE LIST*
G04 Aperture macros list*
%AMRoundRect*
0 Rectangle with rounded corners*
0 $1 Rounding radius*
0 $2 $3 $4 $5 $6 $7 $8 $9 X,Y pos of 4 corners*
0 Add a 4 corners polygon primitive as box body*
4,1,4,$2,$3,$4,$5,$6,$7,$8,$9,$2,$3,0*
0 Add four circle primitives for the rounded corners*
1,1,$1+$1,$2,$3*
1,1,$1+$1,$4,$5*
1,1,$1+$1,$6,$7*
1,1,$1+$1,$8,$9*
0 Add four rect primitives between the rounded corners*
20,1,$1+$1,$2,$3,$4,$5,0*
20,1,$1+$1,$4,$5,$6,$7,0*
20,1,$1+$1,$6,$7,$8,$9,0*
20,1,$1+$1,$8,$9,$2,$3,0*%
G04 Aperture macros list end*
%ADD10C,2.200000*%
%ADD11R,3.200000X3.200000*%
%ADD12O,3.200000X3.200000*%
%ADD13RoundRect,0.102000X0.654000X-0.654000X0.654000X0.654000X-0.654000X0.654000X-0.654000X-0.654000X0*%
%ADD14C,1.512000*%
%ADD15RoundRect,0.102000X-0.700000X0.700000X-0.700000X-0.700000X0.700000X-0.700000X0.700000X0.700000X0*%
%ADD16C,1.604000*%
%ADD17RoundRect,0.102000X-0.685000X0.685000X-0.685000X-0.685000X0.685000X-0.685000X0.685000X0.685000X0*%
%ADD18C,1.574000*%
%ADD19C,1.600000*%
%ADD20O,1.600000X1.600000*%
G04 APERTURE END LIST*
D10*
%TO.C,REF\u002A\u002A*%
X121920000Y-44196000D03*
%TD*%
%TO.C,REF\u002A\u002A*%
X82042000Y-87376000D03*
%TD*%
D11*
%TO.C,D1*%
X96520000Y-53340000D03*
D12*
X96520000Y-45720000D03*
%TD*%
D13*
%TO.C,J3*%
X83820000Y-67500000D03*
D14*
X83820000Y-65500000D03*
X83820000Y-63500000D03*
X83820000Y-61500000D03*
%TD*%
D10*
%TO.C,REF\u002A\u002A*%
X82042000Y-44196000D03*
%TD*%
D15*
%TO.C,U1*%
X96250000Y-69020000D03*
D16*
X96250000Y-71560000D03*
X96250000Y-74100000D03*
X96250000Y-76640000D03*
X96250000Y-79180000D03*
X96250000Y-81720000D03*
X96250000Y-84260000D03*
X96250000Y-86800000D03*
X103870000Y-86800000D03*
X103870000Y-84260000D03*
X103870000Y-81720000D03*
X103870000Y-79180000D03*
X103870000Y-76640000D03*
X103870000Y-74100000D03*
X103870000Y-71560000D03*
X103870000Y-69020000D03*
%TD*%
D17*
%TO.C,J2*%
X115062000Y-54610000D03*
D18*
X112522000Y-54610000D03*
X115062000Y-57150000D03*
X112522000Y-57150000D03*
X115062000Y-59690000D03*
X112522000Y-59690000D03*
X115062000Y-62230000D03*
X112522000Y-62230000D03*
X115062000Y-64770000D03*
X112522000Y-64770000D03*
X115062000Y-67310000D03*
X112522000Y-67310000D03*
X115062000Y-69850000D03*
X112522000Y-69850000D03*
X115062000Y-72390000D03*
X112522000Y-72390000D03*
X115062000Y-74930000D03*
X112522000Y-74930000D03*
X115062000Y-77470000D03*
X112522000Y-77470000D03*
X115062000Y-80010000D03*
X112522000Y-80010000D03*
X115062000Y-82550000D03*
X112522000Y-82550000D03*
X115062000Y-85090000D03*
X112522000Y-85090000D03*
%TD*%
D13*
%TO.C,J1*%
X83640000Y-81790000D03*
D14*
X83640000Y-79790000D03*
X83640000Y-77790000D03*
X83640000Y-75790000D03*
%TD*%
D19*
%TO.C,R1*%
X104140000Y-45720000D03*
D20*
X104140000Y-60960000D03*
%TD*%
D10*
%TO.C,REF\u002A\u002A*%
X121920000Y-87376000D03*
%TD*%
M02*
