M48
INCH,TZ
T1C0.0315
T2C0.0354
T3C0.0402
T4C0.0630
%
G90
G05
T1
X32929Y-29839
X32929Y-30626
X32929Y-31413
X32929Y-32201
X33000Y-24213
X33000Y-25000
X33000Y-25787
X33000Y-26575
X41000Y-18000
X41000Y-24000
T2
X37894Y-27173
X37894Y-28173
X37894Y-29173
X37894Y-30173
X37894Y-31173
X37894Y-32173
X37894Y-33173
X37894Y-34173
X40894Y-27173
X40894Y-28173
X40894Y-29173
X40894Y-30173
X40894Y-31173
X40894Y-32173
X40894Y-33173
X40894Y-34173
T3
X44300Y-21500
X44300Y-22500
X44300Y-23500
X44300Y-24500
X44300Y-25500
X44300Y-26500
X44300Y-27500
X44300Y-28500
X44300Y-29500
X44300Y-30500
X44300Y-31500
X44300Y-32500
X44300Y-33500
X45300Y-21500
X45300Y-22500
X45300Y-23500
X45300Y-24500
X45300Y-25500
X45300Y-26500
X45300Y-27500
X45300Y-28500
X45300Y-29500
X45300Y-30500
X45300Y-31500
X45300Y-32500
X45300Y-33500
T4
X38000Y-18000
X38000Y-21000
T0
M30
