%TF.GenerationSoftware,KiCad,Pcbnew,7.0.7*%
%TF.CreationDate,2025-03-25T10:33:11-07:00*%
%TF.ProjectId,lab7,6c616237-2e6b-4696-9361-645f70636258,rev?*%
%TF.SameCoordinates,Original*%
%TF.FileFunction,Copper,L2,Bot*%
%TF.FilePolarity,Positive*%
%FSLAX46Y46*%
G04 Gerber Fmt 4.6, Leading zero omitted, Abs format (unit mm)*
G04 Created by KiCad (PCBNEW 7.0.7) date 2025-03-25 10:33:11*
%MOMM*%
%LPD*%
G01*
G04 APERTURE LIST*
%TA.AperFunction,ComponentPad*%
%ADD10R,3.200000X3.200000*%
%TD*%
%TA.AperFunction,ComponentPad*%
%ADD11O,3.200000X3.200000*%
%TD*%
%TA.AperFunction,ComponentPad*%
%ADD12R,1.308000X1.308000*%
%TD*%
%TA.AperFunction,ComponentPad*%
%ADD13C,1.308000*%
%TD*%
%TA.AperFunction,ComponentPad*%
%ADD14R,1.400000X1.400000*%
%TD*%
%TA.AperFunction,ComponentPad*%
%ADD15C,1.400000*%
%TD*%
%TA.AperFunction,ComponentPad*%
%ADD16R,1.370000X1.370000*%
%TD*%
%TA.AperFunction,ComponentPad*%
%ADD17C,1.370000*%
%TD*%
%TA.AperFunction,ComponentPad*%
%ADD18C,1.600000*%
%TD*%
%TA.AperFunction,ComponentPad*%
%ADD19O,1.600000X1.600000*%
%TD*%
%TA.AperFunction,Conductor*%
%ADD20C,0.762000*%
%TD*%
G04 APERTURE END LIST*
D10*
%TO.P,D1,1,K*%
%TO.N,GND*%
X96520000Y-53340000D03*
D11*
%TO.P,D1,2,A*%
%TO.N,Net-(D1-A)*%
X96520000Y-45720000D03*
%TD*%
D12*
%TO.P,J3,1,1*%
%TO.N,Net-(U1-CH0)*%
X83820000Y-67500000D03*
D13*
%TO.P,J3,2,2*%
%TO.N,unconnected-(J3-Pad2)*%
X83820000Y-65500000D03*
%TO.P,J3,3,3*%
%TO.N,VDD*%
X83820000Y-63500000D03*
%TO.P,J3,4,4*%
%TO.N,GND*%
X83820000Y-61500000D03*
%TD*%
D14*
%TO.P,U1,1,CH0*%
%TO.N,Net-(U1-CH0)*%
X96250000Y-69020000D03*
D15*
%TO.P,U1,2,CH1*%
%TO.N,Net-(U1-CH1)*%
X96250000Y-71560000D03*
%TO.P,U1,3,CH2*%
%TO.N,unconnected-(U1-CH2-Pad3)*%
X96250000Y-74100000D03*
%TO.P,U1,4,CH3*%
%TO.N,unconnected-(U1-CH3-Pad4)*%
X96250000Y-76640000D03*
%TO.P,U1,5,CH4*%
%TO.N,unconnected-(U1-CH4-Pad5)*%
X96250000Y-79180000D03*
%TO.P,U1,6,CH5*%
%TO.N,unconnected-(U1-CH5-Pad6)*%
X96250000Y-81720000D03*
%TO.P,U1,7,CH6*%
%TO.N,unconnected-(U1-CH6-Pad7)*%
X96250000Y-84260000D03*
%TO.P,U1,8,CH7*%
%TO.N,unconnected-(U1-CH7-Pad8)*%
X96250000Y-86800000D03*
%TO.P,U1,9,DGND*%
%TO.N,GND*%
X103870000Y-86800000D03*
%TO.P,U1,10,SHDN/~{CS}*%
%TO.N,Net-(U1-SHDN{slash}~{CS})*%
X103870000Y-84260000D03*
%TO.P,U1,11,DIN*%
%TO.N,Net-(U1-DIN)*%
X103870000Y-81720000D03*
%TO.P,U1,12,DOUT*%
%TO.N,Net-(U1-DOUT)*%
X103870000Y-79180000D03*
%TO.P,U1,13,CLK*%
%TO.N,Net-(U1-CLK)*%
X103870000Y-76640000D03*
%TO.P,U1,14,AGND*%
%TO.N,GND*%
X103870000Y-74100000D03*
%TO.P,U1,15,VREF*%
%TO.N,VDD*%
X103870000Y-71560000D03*
%TO.P,U1,16,VDD*%
X103870000Y-69020000D03*
%TD*%
D16*
%TO.P,J2,01,01*%
%TO.N,VDD*%
X115062000Y-54610000D03*
D17*
%TO.P,J2,02,02*%
%TO.N,unconnected-(J2-Pad02)*%
X112522000Y-54610000D03*
%TO.P,J2,03,03*%
%TO.N,unconnected-(J2-Pad03)*%
X115062000Y-57150000D03*
%TO.P,J2,04,04*%
%TO.N,unconnected-(J2-Pad04)*%
X112522000Y-57150000D03*
%TO.P,J2,05,05*%
%TO.N,unconnected-(J2-Pad05)*%
X115062000Y-59690000D03*
%TO.P,J2,06,06*%
%TO.N,GND*%
X112522000Y-59690000D03*
%TO.P,J2,07,07*%
%TO.N,unconnected-(J2-Pad07)*%
X115062000Y-62230000D03*
%TO.P,J2,08,08*%
%TO.N,unconnected-(J2-Pad08)*%
X112522000Y-62230000D03*
%TO.P,J2,09,09*%
%TO.N,unconnected-(J2-Pad09)*%
X115062000Y-64770000D03*
%TO.P,J2,10,10*%
%TO.N,unconnected-(J2-Pad10)*%
X112522000Y-64770000D03*
%TO.P,J2,11,11*%
%TO.N,Net-(J2-Pad11)*%
X115062000Y-67310000D03*
%TO.P,J2,12,12*%
%TO.N,unconnected-(J2-Pad12)*%
X112522000Y-67310000D03*
%TO.P,J2,13,13*%
%TO.N,unconnected-(J2-Pad13)*%
X115062000Y-69850000D03*
%TO.P,J2,14,14*%
%TO.N,unconnected-(J2-Pad14)*%
X112522000Y-69850000D03*
%TO.P,J2,15,15*%
%TO.N,unconnected-(J2-Pad15)*%
X115062000Y-72390000D03*
%TO.P,J2,16,16*%
%TO.N,unconnected-(J2-Pad16)*%
X112522000Y-72390000D03*
%TO.P,J2,17,17*%
%TO.N,unconnected-(J2-Pad17)*%
X115062000Y-74930000D03*
%TO.P,J2,18,18*%
%TO.N,unconnected-(J2-Pad18)*%
X112522000Y-74930000D03*
%TO.P,J2,19,19*%
%TO.N,Net-(U1-DIN)*%
X115062000Y-77470000D03*
%TO.P,J2,20,20*%
%TO.N,unconnected-(J2-Pad20)*%
X112522000Y-77470000D03*
%TO.P,J2,21,21*%
%TO.N,Net-(U1-DOUT)*%
X115062000Y-80010000D03*
%TO.P,J2,22,22*%
%TO.N,unconnected-(J2-Pad22)*%
X112522000Y-80010000D03*
%TO.P,J2,23,23*%
%TO.N,Net-(U1-CLK)*%
X115062000Y-82550000D03*
%TO.P,J2,24,24*%
%TO.N,Net-(U1-SHDN{slash}~{CS})*%
X112522000Y-82550000D03*
%TO.P,J2,25,25*%
%TO.N,unconnected-(J2-Pad25)*%
X115062000Y-85090000D03*
%TO.P,J2,26,26*%
%TO.N,unconnected-(J2-Pad26)*%
X112522000Y-85090000D03*
%TD*%
D12*
%TO.P,J1,1,1*%
%TO.N,Net-(U1-CH1)*%
X83640000Y-81790000D03*
D13*
%TO.P,J1,2,2*%
%TO.N,unconnected-(J1-Pad2)*%
X83640000Y-79790000D03*
%TO.P,J1,3,3*%
%TO.N,VDD*%
X83640000Y-77790000D03*
%TO.P,J1,4,4*%
%TO.N,GND*%
X83640000Y-75790000D03*
%TD*%
D18*
%TO.P,R1,1*%
%TO.N,Net-(D1-A)*%
X104140000Y-45720000D03*
D19*
%TO.P,R1,2*%
%TO.N,Net-(J2-Pad11)*%
X104140000Y-60960000D03*
%TD*%
D20*
%TO.N,GND*%
X103870000Y-74100000D02*
X105596000Y-74100000D01*
X103870000Y-88630000D02*
X103886000Y-88646000D01*
X103870000Y-86800000D02*
X103870000Y-88630000D01*
X105664000Y-74168000D02*
X105596000Y-74100000D01*
X105850000Y-86800000D02*
X105918000Y-86868000D01*
X103870000Y-86800000D02*
X105850000Y-86800000D01*
%TD*%
%TA.AperFunction,Conductor*%
%TO.N,GND*%
G36*
X113842302Y-59897359D02*
G01*
X113895489Y-59942669D01*
X113911005Y-59976644D01*
X113951765Y-60119900D01*
X113951819Y-60120090D01*
X114049749Y-60316759D01*
X114182153Y-60492090D01*
X114321830Y-60619422D01*
X114344516Y-60640103D01*
X114531313Y-60755763D01*
X114736183Y-60835129D01*
X114752141Y-60838112D01*
X114814419Y-60869780D01*
X114849692Y-60930092D01*
X114846758Y-60999900D01*
X114806549Y-61057040D01*
X114752141Y-61081887D01*
X114736183Y-61084871D01*
X114736181Y-61084871D01*
X114736179Y-61084872D01*
X114531314Y-61164236D01*
X114531312Y-61164237D01*
X114344514Y-61279898D01*
X114182153Y-61427909D01*
X114049749Y-61603240D01*
X113951819Y-61799909D01*
X113951817Y-61799913D01*
X113951818Y-61799913D01*
X113911265Y-61942439D01*
X113873987Y-62001531D01*
X113810678Y-62031089D01*
X113741438Y-62021727D01*
X113688252Y-61976418D01*
X113672734Y-61942441D01*
X113632182Y-61799913D01*
X113534251Y-61603241D01*
X113401848Y-61427912D01*
X113401846Y-61427909D01*
X113239485Y-61279898D01*
X113239484Y-61279897D01*
X113052687Y-61164237D01*
X113052685Y-61164236D01*
X112870334Y-61093594D01*
X112847817Y-61084871D01*
X112830501Y-61081634D01*
X112768222Y-61049966D01*
X112732949Y-60989654D01*
X112735883Y-60919846D01*
X112776092Y-60862706D01*
X112830505Y-60837857D01*
X112847674Y-60834647D01*
X112847687Y-60834643D01*
X113052462Y-60755313D01*
X113052464Y-60755312D01*
X113164431Y-60685984D01*
X112788301Y-60309854D01*
X112754816Y-60248531D01*
X112759800Y-60178839D01*
X112794780Y-60128460D01*
X112800559Y-60123452D01*
X112800562Y-60123451D01*
X112911395Y-60027413D01*
X112946189Y-59973271D01*
X112998992Y-59927518D01*
X113068150Y-59917574D01*
X113131706Y-59946599D01*
X113138185Y-59952631D01*
X113520151Y-60334598D01*
X113520152Y-60334597D01*
X113533822Y-60316497D01*
X113533824Y-60316493D01*
X113631709Y-60119915D01*
X113631715Y-60119900D01*
X113672474Y-59976648D01*
X113709753Y-59917554D01*
X113773063Y-59887997D01*
X113842302Y-59897359D01*
G37*
%TD.AperFunction*%
%TA.AperFunction,Conductor*%
G36*
X113842561Y-57358272D02*
G01*
X113895748Y-57403581D01*
X113911265Y-57437558D01*
X113931424Y-57508410D01*
X113951818Y-57580089D01*
X114049749Y-57776759D01*
X114182153Y-57952090D01*
X114321830Y-58079422D01*
X114344516Y-58100103D01*
X114531313Y-58215763D01*
X114736183Y-58295129D01*
X114752141Y-58298112D01*
X114814419Y-58329780D01*
X114849692Y-58390092D01*
X114846758Y-58459900D01*
X114806549Y-58517040D01*
X114752141Y-58541887D01*
X114736183Y-58544871D01*
X114736181Y-58544871D01*
X114736179Y-58544872D01*
X114531314Y-58624236D01*
X114531312Y-58624237D01*
X114344514Y-58739898D01*
X114182153Y-58887909D01*
X114049749Y-59063240D01*
X113951818Y-59259911D01*
X113951815Y-59259917D01*
X113911006Y-59403351D01*
X113873727Y-59462444D01*
X113810418Y-59492002D01*
X113741178Y-59482640D01*
X113687992Y-59437331D01*
X113672474Y-59403351D01*
X113631715Y-59260099D01*
X113631709Y-59260084D01*
X113533827Y-59063510D01*
X113533822Y-59063502D01*
X113520151Y-59045400D01*
X113138184Y-59427368D01*
X113076861Y-59460853D01*
X113007169Y-59455869D01*
X112951236Y-59413997D01*
X112946187Y-59406725D01*
X112911397Y-59352589D01*
X112911392Y-59352584D01*
X112794779Y-59251537D01*
X112757005Y-59192759D01*
X112757005Y-59122889D01*
X112788301Y-59070144D01*
X113164431Y-58694014D01*
X113164430Y-58694013D01*
X113052466Y-58624689D01*
X113052460Y-58624685D01*
X112847678Y-58545353D01*
X112847673Y-58545351D01*
X112830499Y-58542141D01*
X112768219Y-58510471D01*
X112732948Y-58450158D01*
X112735884Y-58380350D01*
X112776095Y-58323211D01*
X112830501Y-58298365D01*
X112847817Y-58295129D01*
X113052687Y-58215763D01*
X113239484Y-58100103D01*
X113401848Y-57952088D01*
X113534251Y-57776759D01*
X113632182Y-57580087D01*
X113672734Y-57437560D01*
X113710012Y-57378468D01*
X113773322Y-57348910D01*
X113842561Y-57358272D01*
G37*
%TD.AperFunction*%
%TA.AperFunction,Conductor*%
G36*
X121921866Y-41910613D02*
G01*
X121979516Y-41914100D01*
X122191749Y-41926937D01*
X122199181Y-41927841D01*
X122463282Y-41976238D01*
X122470531Y-41978026D01*
X122726878Y-42057907D01*
X122733866Y-42060558D01*
X122978702Y-42170750D01*
X122985337Y-42174233D01*
X123135784Y-42265180D01*
X123215106Y-42313132D01*
X123221265Y-42317384D01*
X123320157Y-42394861D01*
X123432615Y-42482966D01*
X123438215Y-42487927D01*
X123628071Y-42677783D01*
X123633033Y-42683384D01*
X123798614Y-42894732D01*
X123802872Y-42900900D01*
X123941766Y-43130662D01*
X123945249Y-43137297D01*
X124055441Y-43382133D01*
X124058095Y-43389130D01*
X124129882Y-43619500D01*
X124137970Y-43645456D01*
X124139763Y-43652729D01*
X124140845Y-43658630D01*
X124188158Y-43916818D01*
X124189062Y-43924257D01*
X124205386Y-44194133D01*
X124205499Y-44197877D01*
X124205500Y-87309055D01*
X124205500Y-87374122D01*
X124205387Y-87377867D01*
X124189062Y-87647742D01*
X124188158Y-87655181D01*
X124139764Y-87919267D01*
X124137970Y-87926543D01*
X124072078Y-88138000D01*
X124058099Y-88182859D01*
X124055441Y-88189866D01*
X123945249Y-88434702D01*
X123941766Y-88441337D01*
X123802872Y-88671099D01*
X123798614Y-88677267D01*
X123633033Y-88888615D01*
X123628064Y-88894224D01*
X123438224Y-89084064D01*
X123432615Y-89089033D01*
X123221267Y-89254614D01*
X123215099Y-89258872D01*
X122985337Y-89397766D01*
X122978702Y-89401249D01*
X122733866Y-89511441D01*
X122726863Y-89514097D01*
X122583497Y-89558772D01*
X122470543Y-89593970D01*
X122463267Y-89595764D01*
X122199181Y-89644158D01*
X122191742Y-89645062D01*
X121921867Y-89661387D01*
X121918122Y-89661500D01*
X82043878Y-89661500D01*
X82040133Y-89661387D01*
X81770257Y-89645062D01*
X81762818Y-89644158D01*
X81538806Y-89603107D01*
X81498729Y-89595763D01*
X81491456Y-89593970D01*
X81235130Y-89514095D01*
X81228133Y-89511441D01*
X80983297Y-89401249D01*
X80976662Y-89397766D01*
X80746900Y-89258872D01*
X80740732Y-89254614D01*
X80529384Y-89089033D01*
X80523783Y-89084071D01*
X80333927Y-88894215D01*
X80328966Y-88888615D01*
X80163385Y-88677267D01*
X80159132Y-88671106D01*
X80085942Y-88550035D01*
X80020233Y-88441337D01*
X80016750Y-88434702D01*
X79906558Y-88189866D01*
X79903907Y-88182878D01*
X79824026Y-87926531D01*
X79822238Y-87919282D01*
X79773841Y-87655181D01*
X79772937Y-87647742D01*
X79770739Y-87611408D01*
X79756613Y-87377866D01*
X79756557Y-87376000D01*
X80686341Y-87376000D01*
X80706936Y-87611403D01*
X80706938Y-87611413D01*
X80768094Y-87839655D01*
X80768096Y-87839659D01*
X80768097Y-87839663D01*
X80808610Y-87926543D01*
X80867964Y-88053828D01*
X80867965Y-88053830D01*
X81003505Y-88247402D01*
X81170597Y-88414494D01*
X81364169Y-88550034D01*
X81364171Y-88550035D01*
X81578337Y-88649903D01*
X81806592Y-88711063D01*
X81983034Y-88726500D01*
X82100966Y-88726500D01*
X82277408Y-88711063D01*
X82505663Y-88649903D01*
X82719829Y-88550035D01*
X82913401Y-88414495D01*
X83080495Y-88247401D01*
X83216035Y-88053830D01*
X83315903Y-87839663D01*
X83377063Y-87611408D01*
X83397659Y-87376000D01*
X83377063Y-87140592D01*
X83315903Y-86912337D01*
X83216035Y-86698171D01*
X83216034Y-86698169D01*
X83080494Y-86504597D01*
X82913402Y-86337505D01*
X82719830Y-86201965D01*
X82719828Y-86201964D01*
X82612746Y-86152030D01*
X82505663Y-86102097D01*
X82505659Y-86102096D01*
X82505655Y-86102094D01*
X82277413Y-86040938D01*
X82277403Y-86040936D01*
X82100966Y-86025500D01*
X81983034Y-86025500D01*
X81806596Y-86040936D01*
X81806586Y-86040938D01*
X81578344Y-86102094D01*
X81578335Y-86102098D01*
X81364171Y-86201964D01*
X81364169Y-86201965D01*
X81170597Y-86337505D01*
X81003506Y-86504597D01*
X81003501Y-86504604D01*
X80867967Y-86698165D01*
X80867965Y-86698169D01*
X80768098Y-86912335D01*
X80768094Y-86912344D01*
X80706938Y-87140586D01*
X80706936Y-87140596D01*
X80686341Y-87375999D01*
X80686341Y-87376000D01*
X79756557Y-87376000D01*
X79756500Y-87374122D01*
X79756500Y-79790000D01*
X82480554Y-79790000D01*
X82500295Y-80003047D01*
X82500296Y-80003050D01*
X82558846Y-80208835D01*
X82558849Y-80208841D01*
X82654219Y-80400370D01*
X82752274Y-80530216D01*
X82776966Y-80595578D01*
X82762401Y-80663912D01*
X82727631Y-80704209D01*
X82628455Y-80778452D01*
X82628452Y-80778455D01*
X82542206Y-80893664D01*
X82542202Y-80893671D01*
X82491908Y-81028517D01*
X82486829Y-81075762D01*
X82485501Y-81088123D01*
X82485500Y-81088135D01*
X82485500Y-82491870D01*
X82485501Y-82491876D01*
X82491908Y-82551483D01*
X82542202Y-82686328D01*
X82542206Y-82686335D01*
X82628452Y-82801544D01*
X82628455Y-82801547D01*
X82743664Y-82887793D01*
X82743671Y-82887797D01*
X82878517Y-82938091D01*
X82878516Y-82938091D01*
X82885444Y-82938835D01*
X82938127Y-82944500D01*
X84341872Y-82944499D01*
X84401483Y-82938091D01*
X84536331Y-82887796D01*
X84651546Y-82801546D01*
X84737796Y-82686331D01*
X84788091Y-82551483D01*
X84794500Y-82491873D01*
X84794499Y-81088128D01*
X84788091Y-81028517D01*
X84762574Y-80960103D01*
X84737797Y-80893671D01*
X84737793Y-80893664D01*
X84651547Y-80778456D01*
X84651548Y-80778456D01*
X84651546Y-80778454D01*
X84552366Y-80704208D01*
X84510497Y-80648276D01*
X84505513Y-80578584D01*
X84527723Y-80530218D01*
X84625781Y-80400370D01*
X84721151Y-80208840D01*
X84721151Y-80208837D01*
X84721153Y-80208835D01*
X84779703Y-80003050D01*
X84779704Y-80003047D01*
X84799446Y-79790000D01*
X84799446Y-79789999D01*
X84779704Y-79576952D01*
X84779703Y-79576949D01*
X84721153Y-79371164D01*
X84721150Y-79371158D01*
X84625781Y-79179630D01*
X84496841Y-79008886D01*
X84357251Y-78881633D01*
X84320973Y-78821927D01*
X84322733Y-78752079D01*
X84357251Y-78698366D01*
X84496841Y-78571114D01*
X84625781Y-78400370D01*
X84721151Y-78208840D01*
X84721151Y-78208837D01*
X84721153Y-78208835D01*
X84779703Y-78003050D01*
X84779704Y-78003047D01*
X84799446Y-77790000D01*
X84799446Y-77789999D01*
X84779704Y-77576952D01*
X84779703Y-77576949D01*
X84721153Y-77371164D01*
X84721150Y-77371158D01*
X84661434Y-77251232D01*
X84625781Y-77179630D01*
X84496841Y-77008886D01*
X84338722Y-76864742D01*
X84321205Y-76853896D01*
X84274571Y-76801870D01*
X84269832Y-76773384D01*
X83823866Y-76327419D01*
X83790381Y-76266096D01*
X83795365Y-76196405D01*
X83837236Y-76140471D01*
X83855245Y-76129258D01*
X83878045Y-76117641D01*
X83967641Y-76028045D01*
X83979254Y-76005252D01*
X84027225Y-75954458D01*
X84095046Y-75937661D01*
X84161181Y-75960197D01*
X84177419Y-75973866D01*
X84616018Y-76412465D01*
X84625355Y-76400101D01*
X84625357Y-76400098D01*
X84720678Y-76208669D01*
X84720684Y-76208654D01*
X84779210Y-76002956D01*
X84779211Y-76002954D01*
X84798944Y-75790000D01*
X84798944Y-75789999D01*
X84779211Y-75577045D01*
X84779210Y-75577043D01*
X84720684Y-75371345D01*
X84720678Y-75371330D01*
X84625353Y-75179893D01*
X84616019Y-75167533D01*
X84616018Y-75167533D01*
X84177419Y-75606132D01*
X84116096Y-75639617D01*
X84046404Y-75634633D01*
X83990471Y-75592761D01*
X83979256Y-75574751D01*
X83967641Y-75551955D01*
X83967637Y-75551951D01*
X83967636Y-75551949D01*
X83878050Y-75462363D01*
X83878047Y-75462361D01*
X83878045Y-75462359D01*
X83855250Y-75450744D01*
X83804456Y-75402771D01*
X83787661Y-75334950D01*
X83810198Y-75268815D01*
X83823866Y-75252580D01*
X84259913Y-74816533D01*
X84259912Y-74816532D01*
X84156589Y-74752557D01*
X84156583Y-74752554D01*
X83957162Y-74675299D01*
X83746932Y-74636000D01*
X83533068Y-74636000D01*
X83322837Y-74675299D01*
X83123415Y-74752555D01*
X83020085Y-74816533D01*
X83456133Y-75252580D01*
X83489618Y-75313903D01*
X83484634Y-75383594D01*
X83442763Y-75439528D01*
X83424748Y-75450745D01*
X83401956Y-75462358D01*
X83401949Y-75462363D01*
X83312363Y-75551949D01*
X83312358Y-75551956D01*
X83300745Y-75574748D01*
X83252770Y-75625544D01*
X83184949Y-75642338D01*
X83118814Y-75619800D01*
X83102580Y-75606133D01*
X82663980Y-75167532D01*
X82663979Y-75167532D01*
X82654646Y-75179894D01*
X82654644Y-75179896D01*
X82559321Y-75371330D01*
X82559315Y-75371345D01*
X82500789Y-75577043D01*
X82500788Y-75577045D01*
X82481056Y-75789999D01*
X82481056Y-75790000D01*
X82500788Y-76002954D01*
X82500789Y-76002956D01*
X82559315Y-76208654D01*
X82559321Y-76208669D01*
X82654646Y-76400106D01*
X82663980Y-76412466D01*
X83102580Y-75973866D01*
X83163903Y-75940381D01*
X83233594Y-75945365D01*
X83289528Y-75987236D01*
X83300742Y-76005246D01*
X83312359Y-76028045D01*
X83312361Y-76028047D01*
X83312363Y-76028050D01*
X83401949Y-76117636D01*
X83401951Y-76117637D01*
X83401955Y-76117641D01*
X83424747Y-76129254D01*
X83475542Y-76177228D01*
X83492337Y-76245049D01*
X83469799Y-76311184D01*
X83456132Y-76327419D01*
X83009910Y-76773640D01*
X83004860Y-76803042D01*
X82958795Y-76853895D01*
X82941277Y-76864742D01*
X82783160Y-77008884D01*
X82654219Y-77179629D01*
X82558849Y-77371158D01*
X82558846Y-77371164D01*
X82500296Y-77576949D01*
X82500295Y-77576952D01*
X82480554Y-77789999D01*
X82480554Y-77790000D01*
X82500295Y-78003047D01*
X82500296Y-78003050D01*
X82558846Y-78208835D01*
X82558849Y-78208841D01*
X82654219Y-78400370D01*
X82783160Y-78571116D01*
X82922744Y-78698363D01*
X82959026Y-78758074D01*
X82957265Y-78827922D01*
X82922744Y-78881637D01*
X82783160Y-79008883D01*
X82654219Y-79179629D01*
X82558849Y-79371158D01*
X82558846Y-79371164D01*
X82500296Y-79576949D01*
X82500295Y-79576952D01*
X82480554Y-79789999D01*
X82480554Y-79790000D01*
X79756500Y-79790000D01*
X79756500Y-65500000D01*
X82660554Y-65500000D01*
X82680295Y-65713047D01*
X82680296Y-65713050D01*
X82738846Y-65918835D01*
X82738849Y-65918841D01*
X82834219Y-66110370D01*
X82932274Y-66240216D01*
X82956966Y-66305578D01*
X82942401Y-66373912D01*
X82907631Y-66414209D01*
X82808455Y-66488452D01*
X82808452Y-66488455D01*
X82722206Y-66603664D01*
X82722202Y-66603671D01*
X82671908Y-66738517D01*
X82665501Y-66798116D01*
X82665501Y-66798123D01*
X82665500Y-66798135D01*
X82665500Y-68201870D01*
X82665501Y-68201876D01*
X82671908Y-68261483D01*
X82722202Y-68396328D01*
X82722206Y-68396335D01*
X82808452Y-68511544D01*
X82808455Y-68511547D01*
X82923664Y-68597793D01*
X82923671Y-68597797D01*
X83058517Y-68648091D01*
X83058516Y-68648091D01*
X83065444Y-68648835D01*
X83118127Y-68654500D01*
X84521872Y-68654499D01*
X84581483Y-68648091D01*
X84716331Y-68597796D01*
X84831546Y-68511546D01*
X84917796Y-68396331D01*
X84968091Y-68261483D01*
X84974500Y-68201873D01*
X84974500Y-67564000D01*
X94742000Y-67564000D01*
X94742000Y-88138000D01*
X105156000Y-88138000D01*
X105156000Y-87376000D01*
X120564341Y-87376000D01*
X120584936Y-87611403D01*
X120584938Y-87611413D01*
X120646094Y-87839655D01*
X120646096Y-87839659D01*
X120646097Y-87839663D01*
X120686610Y-87926543D01*
X120745964Y-88053828D01*
X120745965Y-88053830D01*
X120881505Y-88247402D01*
X121048597Y-88414494D01*
X121242169Y-88550034D01*
X121242171Y-88550035D01*
X121456337Y-88649903D01*
X121684592Y-88711063D01*
X121861034Y-88726500D01*
X121978966Y-88726500D01*
X122155408Y-88711063D01*
X122383663Y-88649903D01*
X122597829Y-88550035D01*
X122791401Y-88414495D01*
X122958495Y-88247401D01*
X123094035Y-88053830D01*
X123193903Y-87839663D01*
X123255063Y-87611408D01*
X123275659Y-87376000D01*
X123255063Y-87140592D01*
X123193903Y-86912337D01*
X123094035Y-86698171D01*
X123094034Y-86698169D01*
X122958494Y-86504597D01*
X122791402Y-86337505D01*
X122597830Y-86201965D01*
X122597828Y-86201964D01*
X122490746Y-86152030D01*
X122383663Y-86102097D01*
X122383659Y-86102096D01*
X122383655Y-86102094D01*
X122155413Y-86040938D01*
X122155403Y-86040936D01*
X121978966Y-86025500D01*
X121861034Y-86025500D01*
X121684596Y-86040936D01*
X121684586Y-86040938D01*
X121456344Y-86102094D01*
X121456335Y-86102098D01*
X121242171Y-86201964D01*
X121242169Y-86201965D01*
X121048597Y-86337505D01*
X120881506Y-86504597D01*
X120881501Y-86504604D01*
X120745967Y-86698165D01*
X120745965Y-86698169D01*
X120646098Y-86912335D01*
X120646094Y-86912344D01*
X120584938Y-87140586D01*
X120584936Y-87140596D01*
X120564341Y-87375999D01*
X120564341Y-87376000D01*
X105156000Y-87376000D01*
X105156000Y-85090000D01*
X111331421Y-85090000D01*
X111351692Y-85308763D01*
X111351692Y-85308765D01*
X111351693Y-85308768D01*
X111411818Y-85520087D01*
X111411819Y-85520090D01*
X111509749Y-85716759D01*
X111642153Y-85892090D01*
X111781830Y-86019422D01*
X111804516Y-86040103D01*
X111991313Y-86155763D01*
X112196183Y-86235129D01*
X112412147Y-86275500D01*
X112412149Y-86275500D01*
X112631851Y-86275500D01*
X112631853Y-86275500D01*
X112847817Y-86235129D01*
X113052687Y-86155763D01*
X113239484Y-86040103D01*
X113401848Y-85892088D01*
X113534251Y-85716759D01*
X113632182Y-85520087D01*
X113672734Y-85377560D01*
X113710012Y-85318468D01*
X113773322Y-85288910D01*
X113842561Y-85298272D01*
X113895748Y-85343581D01*
X113911265Y-85377558D01*
X113931424Y-85448410D01*
X113951818Y-85520089D01*
X114049749Y-85716759D01*
X114182153Y-85892090D01*
X114321830Y-86019422D01*
X114344516Y-86040103D01*
X114531313Y-86155763D01*
X114736183Y-86235129D01*
X114952147Y-86275500D01*
X114952149Y-86275500D01*
X115171851Y-86275500D01*
X115171853Y-86275500D01*
X115387817Y-86235129D01*
X115592687Y-86155763D01*
X115779484Y-86040103D01*
X115941848Y-85892088D01*
X116074251Y-85716759D01*
X116172182Y-85520087D01*
X116232307Y-85308768D01*
X116252579Y-85090000D01*
X116232307Y-84871232D01*
X116172182Y-84659913D01*
X116074251Y-84463241D01*
X115941848Y-84287912D01*
X115941846Y-84287909D01*
X115779485Y-84139898D01*
X115779484Y-84139897D01*
X115592687Y-84024237D01*
X115592685Y-84024236D01*
X115387820Y-83944872D01*
X115387819Y-83944871D01*
X115387817Y-83944871D01*
X115371858Y-83941887D01*
X115309580Y-83910221D01*
X115274307Y-83849909D01*
X115277241Y-83780101D01*
X115317449Y-83722960D01*
X115371858Y-83698112D01*
X115387817Y-83695129D01*
X115592687Y-83615763D01*
X115779484Y-83500103D01*
X115941848Y-83352088D01*
X116074251Y-83176759D01*
X116172182Y-82980087D01*
X116232307Y-82768768D01*
X116252579Y-82550000D01*
X116232307Y-82331232D01*
X116172182Y-82119913D01*
X116074251Y-81923241D01*
X115941848Y-81747912D01*
X115941846Y-81747909D01*
X115779485Y-81599898D01*
X115779484Y-81599897D01*
X115592687Y-81484237D01*
X115592685Y-81484236D01*
X115387820Y-81404872D01*
X115387819Y-81404871D01*
X115387817Y-81404871D01*
X115371858Y-81401887D01*
X115309580Y-81370221D01*
X115274307Y-81309909D01*
X115277241Y-81240101D01*
X115317449Y-81182960D01*
X115371858Y-81158112D01*
X115387817Y-81155129D01*
X115592687Y-81075763D01*
X115779484Y-80960103D01*
X115941848Y-80812088D01*
X116074251Y-80636759D01*
X116172182Y-80440087D01*
X116232307Y-80228768D01*
X116252579Y-80010000D01*
X116232307Y-79791232D01*
X116172182Y-79579913D01*
X116074251Y-79383241D01*
X115941848Y-79207912D01*
X115941846Y-79207909D01*
X115779485Y-79059898D01*
X115779484Y-79059897D01*
X115592687Y-78944237D01*
X115592685Y-78944236D01*
X115387820Y-78864872D01*
X115387819Y-78864871D01*
X115387817Y-78864871D01*
X115371858Y-78861887D01*
X115309580Y-78830221D01*
X115274307Y-78769909D01*
X115277241Y-78700101D01*
X115317449Y-78642960D01*
X115371858Y-78618112D01*
X115387817Y-78615129D01*
X115592687Y-78535763D01*
X115779484Y-78420103D01*
X115941848Y-78272088D01*
X116074251Y-78096759D01*
X116172182Y-77900087D01*
X116232307Y-77688768D01*
X116252579Y-77470000D01*
X116232307Y-77251232D01*
X116172182Y-77039913D01*
X116074251Y-76843241D01*
X115941848Y-76667912D01*
X115941846Y-76667909D01*
X115779485Y-76519898D01*
X115779484Y-76519897D01*
X115592687Y-76404237D01*
X115592685Y-76404236D01*
X115387820Y-76324872D01*
X115387819Y-76324871D01*
X115387817Y-76324871D01*
X115371858Y-76321887D01*
X115309580Y-76290221D01*
X115274307Y-76229909D01*
X115277241Y-76160101D01*
X115317449Y-76102960D01*
X115371858Y-76078112D01*
X115387817Y-76075129D01*
X115592687Y-75995763D01*
X115779484Y-75880103D01*
X115941848Y-75732088D01*
X116074251Y-75556759D01*
X116172182Y-75360087D01*
X116232307Y-75148768D01*
X116252579Y-74930000D01*
X116232307Y-74711232D01*
X116172182Y-74499913D01*
X116074251Y-74303241D01*
X115941848Y-74127912D01*
X115941846Y-74127909D01*
X115779485Y-73979898D01*
X115779484Y-73979897D01*
X115592687Y-73864237D01*
X115592685Y-73864236D01*
X115387820Y-73784872D01*
X115387819Y-73784871D01*
X115387817Y-73784871D01*
X115371858Y-73781887D01*
X115309580Y-73750221D01*
X115274307Y-73689909D01*
X115277241Y-73620101D01*
X115317449Y-73562960D01*
X115371858Y-73538112D01*
X115387817Y-73535129D01*
X115592687Y-73455763D01*
X115779484Y-73340103D01*
X115941848Y-73192088D01*
X116074251Y-73016759D01*
X116172182Y-72820087D01*
X116232307Y-72608768D01*
X116252579Y-72390000D01*
X116232307Y-72171232D01*
X116172182Y-71959913D01*
X116074251Y-71763241D01*
X115941848Y-71587912D01*
X115941846Y-71587909D01*
X115779485Y-71439898D01*
X115779484Y-71439897D01*
X115592687Y-71324237D01*
X115592685Y-71324236D01*
X115387820Y-71244872D01*
X115387819Y-71244871D01*
X115387817Y-71244871D01*
X115371858Y-71241887D01*
X115309580Y-71210221D01*
X115274307Y-71149909D01*
X115277241Y-71080101D01*
X115317449Y-71022960D01*
X115371858Y-70998112D01*
X115387817Y-70995129D01*
X115592687Y-70915763D01*
X115779484Y-70800103D01*
X115941848Y-70652088D01*
X116074251Y-70476759D01*
X116172182Y-70280087D01*
X116232307Y-70068768D01*
X116252579Y-69850000D01*
X116232307Y-69631232D01*
X116172182Y-69419913D01*
X116074251Y-69223241D01*
X115941848Y-69047912D01*
X115941846Y-69047909D01*
X115779485Y-68899898D01*
X115779484Y-68899897D01*
X115592687Y-68784237D01*
X115592685Y-68784236D01*
X115387820Y-68704872D01*
X115387819Y-68704871D01*
X115387817Y-68704871D01*
X115371858Y-68701887D01*
X115309580Y-68670221D01*
X115274307Y-68609909D01*
X115277241Y-68540101D01*
X115317449Y-68482960D01*
X115371858Y-68458112D01*
X115387817Y-68455129D01*
X115592687Y-68375763D01*
X115779484Y-68260103D01*
X115941848Y-68112088D01*
X116074251Y-67936759D01*
X116172182Y-67740087D01*
X116232307Y-67528768D01*
X116252579Y-67310000D01*
X116232307Y-67091232D01*
X116172182Y-66879913D01*
X116074251Y-66683241D01*
X115941848Y-66507912D01*
X115941846Y-66507909D01*
X115779485Y-66359898D01*
X115779484Y-66359897D01*
X115592687Y-66244237D01*
X115592685Y-66244236D01*
X115387820Y-66164872D01*
X115387819Y-66164871D01*
X115387817Y-66164871D01*
X115371858Y-66161887D01*
X115309580Y-66130221D01*
X115274307Y-66069909D01*
X115277241Y-66000101D01*
X115317449Y-65942960D01*
X115371858Y-65918112D01*
X115387817Y-65915129D01*
X115592687Y-65835763D01*
X115779484Y-65720103D01*
X115941848Y-65572088D01*
X116074251Y-65396759D01*
X116172182Y-65200087D01*
X116232307Y-64988768D01*
X116252579Y-64770000D01*
X116232307Y-64551232D01*
X116172182Y-64339913D01*
X116074251Y-64143241D01*
X115941848Y-63967912D01*
X115941846Y-63967909D01*
X115779485Y-63819898D01*
X115779484Y-63819897D01*
X115592687Y-63704237D01*
X115592685Y-63704236D01*
X115387820Y-63624872D01*
X115387819Y-63624871D01*
X115387817Y-63624871D01*
X115371858Y-63621887D01*
X115309580Y-63590221D01*
X115274307Y-63529909D01*
X115277241Y-63460101D01*
X115317449Y-63402960D01*
X115371858Y-63378112D01*
X115387817Y-63375129D01*
X115592687Y-63295763D01*
X115779484Y-63180103D01*
X115941848Y-63032088D01*
X116074251Y-62856759D01*
X116172182Y-62660087D01*
X116232307Y-62448768D01*
X116252579Y-62230000D01*
X116232307Y-62011232D01*
X116172182Y-61799913D01*
X116074251Y-61603241D01*
X115941848Y-61427912D01*
X115941846Y-61427909D01*
X115779485Y-61279898D01*
X115779484Y-61279897D01*
X115592687Y-61164237D01*
X115592685Y-61164236D01*
X115387820Y-61084872D01*
X115387819Y-61084871D01*
X115387817Y-61084871D01*
X115371858Y-61081887D01*
X115309580Y-61050221D01*
X115274307Y-60989909D01*
X115277241Y-60920101D01*
X115317449Y-60862960D01*
X115371858Y-60838112D01*
X115387817Y-60835129D01*
X115592687Y-60755763D01*
X115779484Y-60640103D01*
X115941848Y-60492088D01*
X116074251Y-60316759D01*
X116172182Y-60120087D01*
X116232307Y-59908768D01*
X116252579Y-59690000D01*
X116232307Y-59471232D01*
X116172182Y-59259913D01*
X116074251Y-59063241D01*
X115941848Y-58887912D01*
X115941846Y-58887909D01*
X115779485Y-58739898D01*
X115779484Y-58739897D01*
X115592687Y-58624237D01*
X115592685Y-58624236D01*
X115387820Y-58544872D01*
X115387819Y-58544871D01*
X115387817Y-58544871D01*
X115371858Y-58541887D01*
X115309580Y-58510221D01*
X115274307Y-58449909D01*
X115277241Y-58380101D01*
X115317449Y-58322960D01*
X115371858Y-58298112D01*
X115387817Y-58295129D01*
X115592687Y-58215763D01*
X115779484Y-58100103D01*
X115941848Y-57952088D01*
X116074251Y-57776759D01*
X116172182Y-57580087D01*
X116232307Y-57368768D01*
X116252579Y-57150000D01*
X116232307Y-56931232D01*
X116172182Y-56719913D01*
X116074251Y-56523241D01*
X115941848Y-56347912D01*
X115941846Y-56347909D01*
X115779485Y-56199898D01*
X115779484Y-56199897D01*
X115592687Y-56084237D01*
X115592685Y-56084236D01*
X115465915Y-56035126D01*
X115410514Y-55992553D01*
X115386923Y-55926786D01*
X115402634Y-55858706D01*
X115452658Y-55809927D01*
X115510708Y-55795499D01*
X115794872Y-55795499D01*
X115854483Y-55789091D01*
X115989331Y-55738796D01*
X116104546Y-55652546D01*
X116190796Y-55537331D01*
X116241091Y-55402483D01*
X116247500Y-55342873D01*
X116247499Y-53877128D01*
X116241091Y-53817517D01*
X116237507Y-53807909D01*
X116190797Y-53682671D01*
X116190793Y-53682664D01*
X116104547Y-53567455D01*
X116104544Y-53567452D01*
X115989335Y-53481206D01*
X115989328Y-53481202D01*
X115854482Y-53430908D01*
X115854483Y-53430908D01*
X115794883Y-53424501D01*
X115794881Y-53424500D01*
X115794873Y-53424500D01*
X115794864Y-53424500D01*
X114329129Y-53424500D01*
X114329123Y-53424501D01*
X114269516Y-53430908D01*
X114134671Y-53481202D01*
X114134664Y-53481206D01*
X114019455Y-53567452D01*
X114019452Y-53567455D01*
X113933206Y-53682664D01*
X113933202Y-53682671D01*
X113882908Y-53817517D01*
X113880282Y-53841948D01*
X113876501Y-53877123D01*
X113876500Y-53877135D01*
X113876500Y-54149674D01*
X113856815Y-54216713D01*
X113804011Y-54262468D01*
X113734853Y-54272412D01*
X113671297Y-54243387D01*
X113633523Y-54184609D01*
X113633233Y-54183606D01*
X113632182Y-54179912D01*
X113632181Y-54179911D01*
X113575129Y-54065336D01*
X113534251Y-53983241D01*
X113427551Y-53841948D01*
X113401846Y-53807909D01*
X113239485Y-53659898D01*
X113239484Y-53659897D01*
X113052687Y-53544237D01*
X113052685Y-53544236D01*
X112889978Y-53481204D01*
X112847817Y-53464871D01*
X112631853Y-53424500D01*
X112412147Y-53424500D01*
X112196183Y-53464871D01*
X112196180Y-53464871D01*
X112196180Y-53464872D01*
X111991314Y-53544236D01*
X111991312Y-53544237D01*
X111804514Y-53659898D01*
X111642153Y-53807909D01*
X111509749Y-53983240D01*
X111411819Y-54179909D01*
X111351692Y-54391236D01*
X111331421Y-54609999D01*
X111331421Y-54610000D01*
X111351692Y-54828763D01*
X111411819Y-55040090D01*
X111509749Y-55236759D01*
X111642153Y-55412090D01*
X111779533Y-55537328D01*
X111804516Y-55560103D01*
X111991313Y-55675763D01*
X112196183Y-55755129D01*
X112212141Y-55758112D01*
X112274419Y-55789780D01*
X112309692Y-55850092D01*
X112306758Y-55919900D01*
X112266549Y-55977040D01*
X112212141Y-56001887D01*
X112196183Y-56004871D01*
X112196181Y-56004871D01*
X112196179Y-56004872D01*
X111991314Y-56084236D01*
X111991312Y-56084237D01*
X111804514Y-56199898D01*
X111642153Y-56347909D01*
X111509749Y-56523240D01*
X111411819Y-56719909D01*
X111351692Y-56931236D01*
X111331421Y-57149999D01*
X111331421Y-57150000D01*
X111351692Y-57368763D01*
X111351692Y-57368765D01*
X111351693Y-57368768D01*
X111411818Y-57580087D01*
X111411819Y-57580090D01*
X111509749Y-57776759D01*
X111642153Y-57952090D01*
X111781830Y-58079422D01*
X111804516Y-58100103D01*
X111991313Y-58215763D01*
X112196183Y-58295129D01*
X112213493Y-58298365D01*
X112275774Y-58330030D01*
X112311049Y-58390341D01*
X112308118Y-58460149D01*
X112267910Y-58517290D01*
X112213501Y-58542141D01*
X112196325Y-58545352D01*
X112196321Y-58545353D01*
X111991540Y-58624685D01*
X111879568Y-58694014D01*
X112255698Y-59070144D01*
X112289183Y-59131467D01*
X112284199Y-59201159D01*
X112249221Y-59251537D01*
X112132604Y-59352587D01*
X112097810Y-59406728D01*
X112045005Y-59452482D01*
X111975846Y-59462425D01*
X111912291Y-59433399D01*
X111905814Y-59427368D01*
X111523847Y-59045401D01*
X111523846Y-59045401D01*
X111510176Y-59063503D01*
X111412290Y-59260084D01*
X111412284Y-59260099D01*
X111352186Y-59471322D01*
X111352185Y-59471324D01*
X111331923Y-59689999D01*
X111331923Y-59690000D01*
X111352185Y-59908675D01*
X111352186Y-59908677D01*
X111412284Y-60119900D01*
X111412290Y-60119915D01*
X111510172Y-60316489D01*
X111510177Y-60316497D01*
X111523846Y-60334597D01*
X111905814Y-59952630D01*
X111967137Y-59919145D01*
X112036828Y-59924129D01*
X112092762Y-59966000D01*
X112097806Y-59973266D01*
X112132605Y-60027413D01*
X112240446Y-60120858D01*
X112249219Y-60128460D01*
X112286993Y-60187239D01*
X112286993Y-60257108D01*
X112255697Y-60309854D01*
X111879567Y-60685984D01*
X111879568Y-60685985D01*
X111991533Y-60755311D01*
X111991539Y-60755314D01*
X112196321Y-60834646D01*
X112196323Y-60834647D01*
X112213495Y-60837857D01*
X112275776Y-60869525D01*
X112311050Y-60929837D01*
X112308117Y-60999645D01*
X112267908Y-61056785D01*
X112213497Y-61081634D01*
X112196184Y-61084870D01*
X111991314Y-61164236D01*
X111991312Y-61164237D01*
X111804514Y-61279898D01*
X111642153Y-61427909D01*
X111509749Y-61603240D01*
X111411819Y-61799909D01*
X111351692Y-62011236D01*
X111331421Y-62229999D01*
X111331421Y-62230000D01*
X111351692Y-62448763D01*
X111351692Y-62448765D01*
X111351693Y-62448768D01*
X111411818Y-62660087D01*
X111411819Y-62660090D01*
X111509749Y-62856759D01*
X111642153Y-63032090D01*
X111781830Y-63159422D01*
X111804516Y-63180103D01*
X111991313Y-63295763D01*
X112196183Y-63375129D01*
X112212141Y-63378112D01*
X112274419Y-63409780D01*
X112309692Y-63470092D01*
X112306758Y-63539900D01*
X112266549Y-63597040D01*
X112212141Y-63621887D01*
X112196183Y-63624871D01*
X112196181Y-63624871D01*
X112196179Y-63624872D01*
X111991314Y-63704236D01*
X111991312Y-63704237D01*
X111804514Y-63819898D01*
X111642153Y-63967909D01*
X111509749Y-64143240D01*
X111411819Y-64339909D01*
X111351692Y-64551236D01*
X111331421Y-64769999D01*
X111331421Y-64770000D01*
X111351692Y-64988763D01*
X111351692Y-64988765D01*
X111351693Y-64988768D01*
X111377980Y-65081158D01*
X111411819Y-65200090D01*
X111509749Y-65396759D01*
X111642153Y-65572090D01*
X111781830Y-65699422D01*
X111804516Y-65720103D01*
X111991313Y-65835763D01*
X112196183Y-65915129D01*
X112212141Y-65918112D01*
X112274419Y-65949780D01*
X112309692Y-66010092D01*
X112306758Y-66079900D01*
X112266549Y-66137040D01*
X112212141Y-66161887D01*
X112196183Y-66164871D01*
X112196181Y-66164871D01*
X112196179Y-66164872D01*
X111991314Y-66244236D01*
X111991312Y-66244237D01*
X111804514Y-66359898D01*
X111642153Y-66507909D01*
X111509749Y-66683240D01*
X111411819Y-66879909D01*
X111351692Y-67091236D01*
X111331421Y-67309999D01*
X111331421Y-67310000D01*
X111351692Y-67528763D01*
X111351692Y-67528765D01*
X111351693Y-67528768D01*
X111411818Y-67740087D01*
X111411819Y-67740090D01*
X111509749Y-67936759D01*
X111642153Y-68112090D01*
X111740640Y-68201872D01*
X111804516Y-68260103D01*
X111991313Y-68375763D01*
X112196183Y-68455129D01*
X112212141Y-68458112D01*
X112274419Y-68489780D01*
X112309692Y-68550092D01*
X112306758Y-68619900D01*
X112266549Y-68677040D01*
X112212141Y-68701887D01*
X112196183Y-68704871D01*
X112196181Y-68704871D01*
X112196179Y-68704872D01*
X111991314Y-68784236D01*
X111991312Y-68784237D01*
X111804514Y-68899898D01*
X111642153Y-69047909D01*
X111509749Y-69223240D01*
X111411819Y-69419909D01*
X111351692Y-69631236D01*
X111331421Y-69849999D01*
X111331421Y-69850000D01*
X111351692Y-70068763D01*
X111351692Y-70068765D01*
X111351693Y-70068768D01*
X111411818Y-70280087D01*
X111411819Y-70280090D01*
X111509749Y-70476759D01*
X111642153Y-70652090D01*
X111781830Y-70779422D01*
X111804516Y-70800103D01*
X111991313Y-70915763D01*
X112196183Y-70995129D01*
X112212141Y-70998112D01*
X112274419Y-71029780D01*
X112309692Y-71090092D01*
X112306758Y-71159900D01*
X112266549Y-71217040D01*
X112212141Y-71241887D01*
X112196183Y-71244871D01*
X112196181Y-71244871D01*
X112196179Y-71244872D01*
X111991314Y-71324236D01*
X111991312Y-71324237D01*
X111804514Y-71439898D01*
X111642153Y-71587909D01*
X111509749Y-71763240D01*
X111411819Y-71959909D01*
X111351692Y-72171236D01*
X111331421Y-72389999D01*
X111331421Y-72390000D01*
X111351692Y-72608763D01*
X111351692Y-72608765D01*
X111351693Y-72608768D01*
X111411818Y-72820087D01*
X111411819Y-72820090D01*
X111509749Y-73016759D01*
X111642153Y-73192090D01*
X111781830Y-73319422D01*
X111804516Y-73340103D01*
X111991313Y-73455763D01*
X112196183Y-73535129D01*
X112212141Y-73538112D01*
X112274419Y-73569780D01*
X112309692Y-73630092D01*
X112306758Y-73699900D01*
X112266549Y-73757040D01*
X112212141Y-73781887D01*
X112196183Y-73784871D01*
X112196181Y-73784871D01*
X112196179Y-73784872D01*
X111991314Y-73864236D01*
X111991312Y-73864237D01*
X111804514Y-73979898D01*
X111642153Y-74127909D01*
X111509749Y-74303240D01*
X111411819Y-74499909D01*
X111351692Y-74711236D01*
X111331421Y-74929999D01*
X111331421Y-74930000D01*
X111351692Y-75148763D01*
X111351692Y-75148765D01*
X111351693Y-75148768D01*
X111381230Y-75252580D01*
X111411819Y-75360090D01*
X111509749Y-75556759D01*
X111642153Y-75732090D01*
X111705678Y-75790000D01*
X111804516Y-75880103D01*
X111991313Y-75995763D01*
X112196183Y-76075129D01*
X112212141Y-76078112D01*
X112274419Y-76109780D01*
X112309692Y-76170092D01*
X112306758Y-76239900D01*
X112266549Y-76297040D01*
X112212141Y-76321887D01*
X112196183Y-76324871D01*
X112196181Y-76324871D01*
X112196179Y-76324872D01*
X111991314Y-76404236D01*
X111991312Y-76404237D01*
X111804514Y-76519898D01*
X111642153Y-76667909D01*
X111509749Y-76843240D01*
X111411819Y-77039909D01*
X111351692Y-77251236D01*
X111331421Y-77469999D01*
X111331421Y-77470000D01*
X111351692Y-77688763D01*
X111351692Y-77688765D01*
X111351693Y-77688768D01*
X111380496Y-77790000D01*
X111411819Y-77900090D01*
X111509749Y-78096759D01*
X111642153Y-78272090D01*
X111781830Y-78399422D01*
X111804516Y-78420103D01*
X111991313Y-78535763D01*
X112196183Y-78615129D01*
X112212141Y-78618112D01*
X112274419Y-78649780D01*
X112309692Y-78710092D01*
X112306758Y-78779900D01*
X112266549Y-78837040D01*
X112212141Y-78861887D01*
X112196183Y-78864871D01*
X112196181Y-78864871D01*
X112196179Y-78864872D01*
X111991314Y-78944236D01*
X111991312Y-78944237D01*
X111804514Y-79059898D01*
X111642153Y-79207909D01*
X111509749Y-79383240D01*
X111411819Y-79579909D01*
X111351692Y-79791236D01*
X111331421Y-80009999D01*
X111331421Y-80010000D01*
X111351692Y-80228763D01*
X111351692Y-80228765D01*
X111351693Y-80228768D01*
X111400518Y-80400370D01*
X111411819Y-80440090D01*
X111509749Y-80636759D01*
X111642153Y-80812090D01*
X111781830Y-80939422D01*
X111804516Y-80960103D01*
X111991313Y-81075763D01*
X112196183Y-81155129D01*
X112212141Y-81158112D01*
X112274419Y-81189780D01*
X112309692Y-81250092D01*
X112306758Y-81319900D01*
X112266549Y-81377040D01*
X112212141Y-81401887D01*
X112196183Y-81404871D01*
X112196181Y-81404871D01*
X112196179Y-81404872D01*
X111991314Y-81484236D01*
X111991312Y-81484237D01*
X111804514Y-81599898D01*
X111642153Y-81747909D01*
X111509749Y-81923240D01*
X111411819Y-82119909D01*
X111351692Y-82331236D01*
X111331421Y-82549999D01*
X111331421Y-82550000D01*
X111351692Y-82768763D01*
X111351692Y-82768765D01*
X111351693Y-82768768D01*
X111401693Y-82944500D01*
X111411819Y-82980090D01*
X111509749Y-83176759D01*
X111642153Y-83352090D01*
X111781830Y-83479422D01*
X111804516Y-83500103D01*
X111991313Y-83615763D01*
X112196183Y-83695129D01*
X112212141Y-83698112D01*
X112274419Y-83729780D01*
X112309692Y-83790092D01*
X112306758Y-83859900D01*
X112266549Y-83917040D01*
X112212141Y-83941887D01*
X112196183Y-83944871D01*
X112196181Y-83944871D01*
X112196179Y-83944872D01*
X111991314Y-84024236D01*
X111991312Y-84024237D01*
X111804514Y-84139898D01*
X111642153Y-84287909D01*
X111509749Y-84463240D01*
X111411819Y-84659909D01*
X111351692Y-84871236D01*
X111331421Y-85089999D01*
X111331421Y-85090000D01*
X105156000Y-85090000D01*
X105156000Y-67564000D01*
X94742000Y-67564000D01*
X84974500Y-67564000D01*
X84974499Y-66798128D01*
X84968091Y-66738517D01*
X84947474Y-66683241D01*
X84917797Y-66603671D01*
X84917793Y-66603664D01*
X84831547Y-66488456D01*
X84831548Y-66488456D01*
X84831546Y-66488454D01*
X84732366Y-66414208D01*
X84690497Y-66358276D01*
X84685513Y-66288584D01*
X84707723Y-66240218D01*
X84805781Y-66110370D01*
X84901151Y-65918840D01*
X84901151Y-65918837D01*
X84901153Y-65918835D01*
X84934679Y-65801000D01*
X84959704Y-65713048D01*
X84979446Y-65500000D01*
X84959704Y-65286952D01*
X84934990Y-65200090D01*
X84901153Y-65081164D01*
X84901150Y-65081158D01*
X84872480Y-65023581D01*
X84805781Y-64889630D01*
X84676841Y-64718886D01*
X84537254Y-64591636D01*
X84500972Y-64531925D01*
X84502733Y-64462078D01*
X84537251Y-64408365D01*
X84676841Y-64281114D01*
X84805781Y-64110370D01*
X84901151Y-63918840D01*
X84901151Y-63918837D01*
X84901153Y-63918835D01*
X84959703Y-63713050D01*
X84959704Y-63713047D01*
X84960521Y-63704236D01*
X84979446Y-63500000D01*
X84959704Y-63286952D01*
X84929303Y-63180103D01*
X84901153Y-63081164D01*
X84901150Y-63081158D01*
X84876716Y-63032088D01*
X84805781Y-62889630D01*
X84676841Y-62718886D01*
X84518722Y-62574742D01*
X84501205Y-62563896D01*
X84454571Y-62511870D01*
X84449832Y-62483384D01*
X84003866Y-62037419D01*
X83970381Y-61976096D01*
X83975365Y-61906405D01*
X84017236Y-61850471D01*
X84035245Y-61839258D01*
X84058045Y-61827641D01*
X84147641Y-61738045D01*
X84159254Y-61715252D01*
X84207225Y-61664458D01*
X84275046Y-61647661D01*
X84341181Y-61670197D01*
X84357419Y-61683866D01*
X84796018Y-62122465D01*
X84805355Y-62110101D01*
X84805357Y-62110098D01*
X84900678Y-61918669D01*
X84900684Y-61918654D01*
X84959210Y-61712956D01*
X84959211Y-61712954D01*
X84978944Y-61500000D01*
X84978944Y-61499999D01*
X84959211Y-61287045D01*
X84959210Y-61287043D01*
X84900684Y-61081345D01*
X84900678Y-61081330D01*
X84840263Y-60960001D01*
X102834532Y-60960001D01*
X102854364Y-61186686D01*
X102854366Y-61186697D01*
X102913258Y-61406488D01*
X102913261Y-61406497D01*
X103009431Y-61612732D01*
X103009432Y-61612734D01*
X103139954Y-61799141D01*
X103300858Y-61960045D01*
X103324241Y-61976418D01*
X103487266Y-62090568D01*
X103693504Y-62186739D01*
X103913308Y-62245635D01*
X104075230Y-62259801D01*
X104139998Y-62265468D01*
X104140000Y-62265468D01*
X104140002Y-62265468D01*
X104196673Y-62260509D01*
X104366692Y-62245635D01*
X104586496Y-62186739D01*
X104792734Y-62090568D01*
X104979139Y-61960047D01*
X105140047Y-61799139D01*
X105270568Y-61612734D01*
X105366739Y-61406496D01*
X105425635Y-61186692D01*
X105445468Y-60960000D01*
X105425635Y-60733308D01*
X105366739Y-60513504D01*
X105270568Y-60307266D01*
X105140047Y-60120861D01*
X105140045Y-60120858D01*
X104979141Y-59959954D01*
X104792734Y-59829432D01*
X104792732Y-59829431D01*
X104586497Y-59733261D01*
X104586488Y-59733258D01*
X104366697Y-59674366D01*
X104366693Y-59674365D01*
X104366692Y-59674365D01*
X104366691Y-59674364D01*
X104366686Y-59674364D01*
X104140002Y-59654532D01*
X104139998Y-59654532D01*
X103913313Y-59674364D01*
X103913302Y-59674366D01*
X103693511Y-59733258D01*
X103693502Y-59733261D01*
X103487267Y-59829431D01*
X103487265Y-59829432D01*
X103300858Y-59959954D01*
X103139954Y-60120858D01*
X103009432Y-60307265D01*
X103009431Y-60307267D01*
X102913261Y-60513502D01*
X102913258Y-60513511D01*
X102854366Y-60733302D01*
X102854364Y-60733313D01*
X102834532Y-60959998D01*
X102834532Y-60960001D01*
X84840263Y-60960001D01*
X84805353Y-60889893D01*
X84796019Y-60877533D01*
X84796018Y-60877533D01*
X84357419Y-61316132D01*
X84296096Y-61349617D01*
X84226404Y-61344633D01*
X84170471Y-61302761D01*
X84159256Y-61284751D01*
X84147641Y-61261955D01*
X84147637Y-61261951D01*
X84147636Y-61261949D01*
X84058050Y-61172363D01*
X84058047Y-61172361D01*
X84058045Y-61172359D01*
X84035250Y-61160744D01*
X83984456Y-61112771D01*
X83967661Y-61044950D01*
X83990198Y-60978815D01*
X84003866Y-60962580D01*
X84439913Y-60526533D01*
X84439912Y-60526532D01*
X84336589Y-60462557D01*
X84336583Y-60462554D01*
X84137162Y-60385299D01*
X83926932Y-60346000D01*
X83713068Y-60346000D01*
X83502837Y-60385299D01*
X83303415Y-60462555D01*
X83200085Y-60526533D01*
X83636133Y-60962580D01*
X83669618Y-61023903D01*
X83664634Y-61093594D01*
X83622763Y-61149528D01*
X83604748Y-61160745D01*
X83581956Y-61172358D01*
X83581949Y-61172363D01*
X83492363Y-61261949D01*
X83492358Y-61261956D01*
X83480745Y-61284748D01*
X83432770Y-61335544D01*
X83364949Y-61352338D01*
X83298814Y-61329800D01*
X83282580Y-61316133D01*
X82843980Y-60877532D01*
X82843979Y-60877532D01*
X82834646Y-60889894D01*
X82834644Y-60889896D01*
X82739321Y-61081330D01*
X82739315Y-61081345D01*
X82680789Y-61287043D01*
X82680788Y-61287045D01*
X82661056Y-61499999D01*
X82661056Y-61500000D01*
X82680788Y-61712954D01*
X82680789Y-61712956D01*
X82739315Y-61918654D01*
X82739321Y-61918669D01*
X82834646Y-62110106D01*
X82843980Y-62122466D01*
X83282580Y-61683866D01*
X83343903Y-61650381D01*
X83413594Y-61655365D01*
X83469528Y-61697236D01*
X83480742Y-61715246D01*
X83492359Y-61738045D01*
X83492361Y-61738047D01*
X83492363Y-61738050D01*
X83581949Y-61827636D01*
X83581951Y-61827637D01*
X83581955Y-61827641D01*
X83604747Y-61839254D01*
X83655542Y-61887228D01*
X83672337Y-61955049D01*
X83649799Y-62021184D01*
X83636132Y-62037419D01*
X83189910Y-62483640D01*
X83184860Y-62513042D01*
X83138795Y-62563895D01*
X83121277Y-62574742D01*
X82963160Y-62718884D01*
X82834219Y-62889629D01*
X82738849Y-63081158D01*
X82738846Y-63081164D01*
X82680296Y-63286949D01*
X82680295Y-63286952D01*
X82660554Y-63499999D01*
X82660554Y-63500000D01*
X82680295Y-63713047D01*
X82680296Y-63713050D01*
X82738846Y-63918835D01*
X82738849Y-63918841D01*
X82834219Y-64110370D01*
X82963160Y-64281116D01*
X83102744Y-64408363D01*
X83139026Y-64468074D01*
X83137265Y-64537922D01*
X83102744Y-64591637D01*
X82963160Y-64718883D01*
X82834219Y-64889629D01*
X82738849Y-65081158D01*
X82738846Y-65081164D01*
X82680296Y-65286949D01*
X82680295Y-65286952D01*
X82660554Y-65499999D01*
X82660554Y-65500000D01*
X79756500Y-65500000D01*
X79756500Y-54987844D01*
X94420000Y-54987844D01*
X94426401Y-55047372D01*
X94426403Y-55047379D01*
X94476645Y-55182086D01*
X94476649Y-55182093D01*
X94562809Y-55297187D01*
X94562812Y-55297190D01*
X94677906Y-55383350D01*
X94677913Y-55383354D01*
X94812620Y-55433596D01*
X94812627Y-55433598D01*
X94872155Y-55439999D01*
X94872172Y-55440000D01*
X96270000Y-55440000D01*
X96270000Y-54255649D01*
X96289685Y-54188610D01*
X96342489Y-54142855D01*
X96407883Y-54132429D01*
X96445485Y-54136666D01*
X96475071Y-54140000D01*
X96475074Y-54140000D01*
X96564930Y-54140000D01*
X96564930Y-54139999D01*
X96597889Y-54136285D01*
X96632115Y-54132430D01*
X96700937Y-54144484D01*
X96752317Y-54191833D01*
X96769999Y-54255650D01*
X96769999Y-55439999D01*
X96770001Y-55440000D01*
X98167828Y-55440000D01*
X98167844Y-55439999D01*
X98227372Y-55433598D01*
X98227379Y-55433596D01*
X98362086Y-55383354D01*
X98362093Y-55383350D01*
X98477187Y-55297190D01*
X98477190Y-55297187D01*
X98563350Y-55182093D01*
X98563354Y-55182086D01*
X98613596Y-55047379D01*
X98613598Y-55047372D01*
X98619999Y-54987844D01*
X98620000Y-54987827D01*
X98620000Y-53590000D01*
X97435650Y-53590000D01*
X97368611Y-53570315D01*
X97322856Y-53517511D01*
X97312430Y-53452117D01*
X97325062Y-53340003D01*
X97325062Y-53339996D01*
X97312430Y-53227883D01*
X97324484Y-53159062D01*
X97371834Y-53107682D01*
X97435650Y-53090000D01*
X98620000Y-53090000D01*
X98620000Y-51692172D01*
X98619999Y-51692155D01*
X98613598Y-51632627D01*
X98613596Y-51632620D01*
X98563354Y-51497913D01*
X98563350Y-51497906D01*
X98477190Y-51382812D01*
X98477187Y-51382809D01*
X98362093Y-51296649D01*
X98362086Y-51296645D01*
X98227379Y-51246403D01*
X98227372Y-51246401D01*
X98167844Y-51240000D01*
X96769999Y-51240000D01*
X96769999Y-52424349D01*
X96750314Y-52491389D01*
X96697510Y-52537143D01*
X96632117Y-52547569D01*
X96564935Y-52540000D01*
X96564926Y-52540000D01*
X96475074Y-52540000D01*
X96475070Y-52540000D01*
X96407884Y-52547570D01*
X96339062Y-52535516D01*
X96287682Y-52488167D01*
X96270000Y-52424350D01*
X96270000Y-51240000D01*
X94872155Y-51240000D01*
X94812627Y-51246401D01*
X94812620Y-51246403D01*
X94677913Y-51296645D01*
X94677906Y-51296649D01*
X94562812Y-51382809D01*
X94562809Y-51382812D01*
X94476649Y-51497906D01*
X94476645Y-51497913D01*
X94426403Y-51632620D01*
X94426401Y-51632627D01*
X94420000Y-51692155D01*
X94420000Y-53090000D01*
X95604350Y-53090000D01*
X95671389Y-53109685D01*
X95717144Y-53162489D01*
X95727570Y-53227883D01*
X95714938Y-53339996D01*
X95714938Y-53340003D01*
X95727570Y-53452117D01*
X95715516Y-53520938D01*
X95668166Y-53572318D01*
X95604350Y-53590000D01*
X94420000Y-53590000D01*
X94420000Y-54987844D01*
X79756500Y-54987844D01*
X79756500Y-45720000D01*
X94414592Y-45720000D01*
X94434201Y-46006680D01*
X94492666Y-46288034D01*
X94492667Y-46288037D01*
X94588894Y-46558793D01*
X94588893Y-46558793D01*
X94721098Y-46813935D01*
X94886812Y-47048700D01*
X94971923Y-47139831D01*
X95082947Y-47258708D01*
X95305853Y-47440054D01*
X95305853Y-47440055D01*
X95551382Y-47589365D01*
X95738237Y-47670526D01*
X95814942Y-47703844D01*
X96091642Y-47781371D01*
X96341920Y-47815771D01*
X96376321Y-47820500D01*
X96376322Y-47820500D01*
X96663679Y-47820500D01*
X96694370Y-47816281D01*
X96948358Y-47781371D01*
X97225058Y-47703844D01*
X97338015Y-47654779D01*
X97488617Y-47589365D01*
X97488620Y-47589363D01*
X97488625Y-47589361D01*
X97734147Y-47440055D01*
X97957053Y-47258708D01*
X98153189Y-47048698D01*
X98318901Y-46813936D01*
X98451104Y-46558797D01*
X98547334Y-46288032D01*
X98605798Y-46006686D01*
X98625408Y-45720001D01*
X102834532Y-45720001D01*
X102854364Y-45946686D01*
X102854366Y-45946697D01*
X102913258Y-46166488D01*
X102913261Y-46166497D01*
X103009431Y-46372732D01*
X103009432Y-46372734D01*
X103139954Y-46559141D01*
X103300858Y-46720045D01*
X103300861Y-46720047D01*
X103487266Y-46850568D01*
X103693504Y-46946739D01*
X103913308Y-47005635D01*
X104075230Y-47019801D01*
X104139998Y-47025468D01*
X104140000Y-47025468D01*
X104140002Y-47025468D01*
X104196673Y-47020509D01*
X104366692Y-47005635D01*
X104586496Y-46946739D01*
X104792734Y-46850568D01*
X104979139Y-46720047D01*
X105140047Y-46559139D01*
X105270568Y-46372734D01*
X105366739Y-46166496D01*
X105425635Y-45946692D01*
X105445468Y-45720000D01*
X105425635Y-45493308D01*
X105366739Y-45273504D01*
X105270568Y-45067266D01*
X105140289Y-44881206D01*
X105140045Y-44880858D01*
X104979141Y-44719954D01*
X104792734Y-44589432D01*
X104792732Y-44589431D01*
X104586497Y-44493261D01*
X104586488Y-44493258D01*
X104366697Y-44434366D01*
X104366693Y-44434365D01*
X104366692Y-44434365D01*
X104366691Y-44434364D01*
X104366686Y-44434364D01*
X104140002Y-44414532D01*
X104139998Y-44414532D01*
X103913313Y-44434364D01*
X103913302Y-44434366D01*
X103693511Y-44493258D01*
X103693502Y-44493261D01*
X103487267Y-44589431D01*
X103487265Y-44589432D01*
X103300858Y-44719954D01*
X103139954Y-44880858D01*
X103009432Y-45067265D01*
X103009431Y-45067267D01*
X102913261Y-45273502D01*
X102913258Y-45273511D01*
X102854366Y-45493302D01*
X102854364Y-45493313D01*
X102834532Y-45719998D01*
X102834532Y-45720001D01*
X98625408Y-45720001D01*
X98625408Y-45720000D01*
X98605798Y-45433314D01*
X98547334Y-45151968D01*
X98451105Y-44881206D01*
X98451106Y-44881206D01*
X98318901Y-44626064D01*
X98153187Y-44391299D01*
X98074554Y-44307105D01*
X97970789Y-44196000D01*
X120564341Y-44196000D01*
X120584936Y-44431403D01*
X120584938Y-44431413D01*
X120646094Y-44659655D01*
X120646096Y-44659659D01*
X120646097Y-44659663D01*
X120696031Y-44766745D01*
X120745964Y-44873828D01*
X120745965Y-44873830D01*
X120881505Y-45067402D01*
X121048597Y-45234494D01*
X121242169Y-45370034D01*
X121242171Y-45370035D01*
X121456337Y-45469903D01*
X121684592Y-45531063D01*
X121861034Y-45546500D01*
X121978966Y-45546500D01*
X122155408Y-45531063D01*
X122383663Y-45469903D01*
X122597829Y-45370035D01*
X122791401Y-45234495D01*
X122958495Y-45067401D01*
X123094035Y-44873830D01*
X123193903Y-44659663D01*
X123255063Y-44431408D01*
X123275659Y-44196000D01*
X123255063Y-43960592D01*
X123193903Y-43732337D01*
X123094035Y-43518171D01*
X123094034Y-43518169D01*
X122958494Y-43324597D01*
X122791402Y-43157505D01*
X122597830Y-43021965D01*
X122597828Y-43021964D01*
X122490745Y-42972031D01*
X122383663Y-42922097D01*
X122383659Y-42922096D01*
X122383655Y-42922094D01*
X122155413Y-42860938D01*
X122155403Y-42860936D01*
X121978966Y-42845500D01*
X121861034Y-42845500D01*
X121684596Y-42860936D01*
X121684586Y-42860938D01*
X121456344Y-42922094D01*
X121456335Y-42922098D01*
X121242171Y-43021964D01*
X121242169Y-43021965D01*
X121048597Y-43157505D01*
X120881506Y-43324597D01*
X120881501Y-43324604D01*
X120745967Y-43518165D01*
X120745965Y-43518169D01*
X120646098Y-43732335D01*
X120646094Y-43732344D01*
X120584938Y-43960586D01*
X120584936Y-43960596D01*
X120564341Y-44195999D01*
X120564341Y-44196000D01*
X97970789Y-44196000D01*
X97957053Y-44181292D01*
X97734147Y-43999945D01*
X97734146Y-43999944D01*
X97488617Y-43850634D01*
X97225063Y-43736158D01*
X97225061Y-43736157D01*
X97225058Y-43736156D01*
X97095578Y-43699877D01*
X96948364Y-43658630D01*
X96948359Y-43658629D01*
X96948358Y-43658629D01*
X96806017Y-43639064D01*
X96663679Y-43619500D01*
X96663678Y-43619500D01*
X96376322Y-43619500D01*
X96376321Y-43619500D01*
X96091642Y-43658629D01*
X96091635Y-43658630D01*
X95883861Y-43716845D01*
X95814942Y-43736156D01*
X95814939Y-43736156D01*
X95814936Y-43736158D01*
X95814935Y-43736158D01*
X95551382Y-43850634D01*
X95305853Y-43999944D01*
X95082950Y-44181289D01*
X94886812Y-44391299D01*
X94721098Y-44626064D01*
X94588894Y-44881206D01*
X94492667Y-45151962D01*
X94492666Y-45151965D01*
X94434201Y-45433319D01*
X94414592Y-45720000D01*
X79756500Y-45720000D01*
X79756500Y-44197877D01*
X79756557Y-44196000D01*
X80686341Y-44196000D01*
X80706936Y-44431403D01*
X80706938Y-44431413D01*
X80768094Y-44659655D01*
X80768096Y-44659659D01*
X80768097Y-44659663D01*
X80818031Y-44766746D01*
X80867964Y-44873828D01*
X80867965Y-44873830D01*
X81003505Y-45067402D01*
X81170597Y-45234494D01*
X81364169Y-45370034D01*
X81364171Y-45370035D01*
X81578337Y-45469903D01*
X81806592Y-45531063D01*
X81983034Y-45546500D01*
X82100966Y-45546500D01*
X82277408Y-45531063D01*
X82505663Y-45469903D01*
X82719829Y-45370035D01*
X82913401Y-45234495D01*
X83080495Y-45067401D01*
X83216035Y-44873830D01*
X83315903Y-44659663D01*
X83377063Y-44431408D01*
X83397659Y-44196000D01*
X83377063Y-43960592D01*
X83315903Y-43732337D01*
X83216035Y-43518171D01*
X83216034Y-43518169D01*
X83080494Y-43324597D01*
X82913402Y-43157505D01*
X82719830Y-43021965D01*
X82719828Y-43021964D01*
X82612746Y-42972031D01*
X82505663Y-42922097D01*
X82505659Y-42922096D01*
X82505655Y-42922094D01*
X82277413Y-42860938D01*
X82277403Y-42860936D01*
X82100966Y-42845500D01*
X81983034Y-42845500D01*
X81806596Y-42860936D01*
X81806586Y-42860938D01*
X81578344Y-42922094D01*
X81578335Y-42922098D01*
X81364171Y-43021964D01*
X81364169Y-43021965D01*
X81170597Y-43157505D01*
X81003506Y-43324597D01*
X81003501Y-43324604D01*
X80867967Y-43518165D01*
X80867965Y-43518169D01*
X80768098Y-43732335D01*
X80768094Y-43732344D01*
X80706938Y-43960586D01*
X80706936Y-43960596D01*
X80686341Y-44195999D01*
X80686341Y-44196000D01*
X79756557Y-44196000D01*
X79756613Y-44194133D01*
X79770739Y-43960596D01*
X79772938Y-43924248D01*
X79773841Y-43916818D01*
X79822239Y-43652713D01*
X79824024Y-43645472D01*
X79903909Y-43389116D01*
X79906558Y-43382133D01*
X80016750Y-43137297D01*
X80020233Y-43130662D01*
X80085942Y-43021965D01*
X80159137Y-42900885D01*
X80163378Y-42894741D01*
X80328974Y-42683373D01*
X80333919Y-42677792D01*
X80523792Y-42487919D01*
X80529373Y-42482974D01*
X80740741Y-42317378D01*
X80746885Y-42313137D01*
X80897347Y-42222179D01*
X80976662Y-42174233D01*
X80983297Y-42170750D01*
X81107575Y-42114817D01*
X81228137Y-42060556D01*
X81235116Y-42057909D01*
X81491472Y-41978024D01*
X81498713Y-41976239D01*
X81762820Y-41927840D01*
X81770248Y-41926938D01*
X81987804Y-41913778D01*
X82040134Y-41910613D01*
X82043878Y-41910500D01*
X82108945Y-41910500D01*
X121853055Y-41910500D01*
X121918122Y-41910500D01*
X121921866Y-41910613D01*
G37*
%TD.AperFunction*%
%TD*%
M02*
